<svg id="Слой_1" data-name="Слой 1"
    xmlns="http://www.w3.org/2000/svg" viewBox="0 0 737.01 255.12">
    <defs>
        <style>.cls-1,.cls-2{fill:none;stroke:#1d1e1c;}.cls-1{stroke-width:4px;}.cls-2{stroke-width:3px;}</style>
    </defs>
    <path class="cls-1" d="M409,34.47c11.44-4.28,324.73,14,324.73,14V101.5"/>
    <polyline class="cls-1" points="3.2 139.25 120.03 139.25 242.46 209.64 273.57 209.64 273.57 247.9 225.62 247.9 104.21 174.44 3.2 173.93"/>
    <polyline class="cls-1" points="273.57 247.9 492.42 247.9 492.42 209.64 519.46 209.64 638.83 139.25 733.71 139.25"/>
    <polyline class="cls-1" points="733.71 173.42 656.17 173.42 537.82 247.9 492.42 247.9"/>
    <polyline class="cls-1" points="537.82 247.9 607.71 247.9 662.81 210.66 733.71 210.66 733.71 101.5 716.88 101.5"/>
    <polyline class="cls-1" points="462.83 247.9 462.83 210.66 302.65 210.66 302.65 247.9"/>
    <path class="cls-1" d="M638.83,139.25V101.5s63.77-5.62,78,0v37.75"/>
    <path class="cls-1" d="M120,139.25V101.5s-40.3-7.15-78.56,3.06v34.69"/>
    <line class="cls-1" x1="3.2" y1="104.56" x2="41.46" y2="104.56"/>
    <polyline class="cls-1" points="120.03 101.5 215.42 104.56 215.42 194.85"/>
    <polyline class="cls-1" points="638.83 101.5 609.75 102.44 544.46 104.56 547.01 194.85"/>
    <path class="cls-1" d="M215.42,104.56s38.77-26,109.68-13.27l57.64-54.58,55.1,54.58H325.1"/>
    <path class="cls-1" d="M437.84,210.66V91.29s33.52-11.75,91.71,7.77q7.2,2.41,14.91,5.5"/>
    <path class="cls-1" d="M733.71,87.21s-254-13.77-286.18-13.77L382.74,7.12l-26.08,26.7L318,73.44S20.55,79.56,3.2,87.21V211.68l95.4,2,56.62,34.18h70.4"/>
    <path class="cls-1" d="M353.84,36.71S87.38,37.22,3.2,50.48V87.21"/>
    <line class="cls-2" x1="519.46" y1="209.64" x2="519.46" y2="96.17"/>
    <line class="cls-2" x1="242.46" y1="209.64" x2="242.46" y2="93.48"/>
    <line class="cls-1" x1="325.1" y1="91.29" x2="325.1" y2="210.66"/>
    <polygon class="cls-2" points="347.19 43.51 418.29 43.51 382.74 70.63 347.19 43.51"/>
    <line class="cls-1" x1="317.96" y1="73.44" x2="447.53" y2="73.44"/>
    <line class="cls-2" x1="623.49" y1="101.99" x2="623.49" y2="148.17"/>
    <line class="cls-2" x1="611.03" y1="155.64" x2="611.03" y2="102.44"/>
    <line class="cls-2" x1="599.33" y1="162.54" x2="599.33" y2="102.78"/>
    <line class="cls-2" x1="586.07" y1="170.36" x2="586.07" y2="103.21"/>
    <line class="cls-2" x1="571.35" y1="179.04" x2="571.35" y2="103.21"/>
    <line class="cls-2" x1="559.32" y1="186.14" x2="559.32" y2="104.07"/>
    <line class="cls-2" x1="462.83" y1="210.66" x2="462.83" y2="87.83"/>
    <line class="cls-2" x1="492.42" y1="209.64" x2="492.42" y2="89.88"/>
    <line class="cls-2" x1="534.45" y1="200.8" x2="534.45" y2="100.76"/>
    <line class="cls-2" x1="302.65" y1="210.66" x2="302.65" y2="88.4"/>
    <line class="cls-2" x1="273.57" y1="209.64" x2="273.57" y2="88.26"/>
    <line class="cls-2" x1="258.27" y1="209.64" x2="258.27" y2="90.05"/>
    <line class="cls-2" x1="227.08" y1="200.8" x2="227.08" y2="98.71"/>
    <line class="cls-2" x1="288.37" y1="247.9" x2="288.37" y2="87.78"/>
    <line class="cls-2" x1="476.1" y1="247.9" x2="476.1" y2="88.26"/>
    <line class="cls-2" x1="201.58" y1="186.14" x2="201.58" y2="104.07"/>
    <line class="cls-2" x1="189.24" y1="179.04" x2="189.24" y2="104.07"/>
    <line class="cls-2" x1="174.13" y1="170.36" x2="174.13" y2="104.07"/>
    <line class="cls-2" x1="160.54" y1="162.54" x2="160.54" y2="103.21"/>
    <line class="cls-2" x1="148.54" y1="155.64" x2="148.54" y2="102.44"/>
    <line class="cls-2" x1="135.55" y1="148.17" x2="135.55" y2="101.99"/>
    <path class="cls-2" d="M638.83,129H544.46c-66.57-22.45-106.62-12.24-106.62-12.24H325.1"/>
    <path class="cls-2" d="M604,159.78H546l-1.56-.77c-66.57-22.45-106.62-12.24-106.62-12.24H325.1"/>
    <path class="cls-2" d="M552.74,190h-5.87l-2.41-1c-66.57-22.45-106.62-12.24-106.62-12.24H325.1"/>
    <path class="cls-2" d="M325.1,206.84H437.84s48.14-4,68.87,2.8v-117"/>
    <path class="cls-2" d="M325.1,116.61s-46.55-9.12-106.62,12.24"/>
    <polyline class="cls-2" points="219.41 128.52 215.42 129.94 120.03 129.94"/>
    <path class="cls-2" d="M325.1,146.58s-46.55-9.12-106.62,12.24"/>
    <polyline class="cls-2" points="219.41 158.49 215.42 159.91 157.08 159.91"/>
    <path class="cls-2" d="M325.1,176.55s-46.55-9.12-106.62,12.24"/>
    <polyline class="cls-2" points="219.41 188.46 215.42 189.88 208.08 189.88"/>
    <path class="cls-2" d="M323.82,206.84s-46.61-3.4-65.8,1.93"/>
    <line class="cls-2" x1="426.61" y1="206.84" x2="426.61" y2="91.29"/>
    <line class="cls-2" x1="408.98" y1="206.84" x2="408.98" y2="91.29"/>
    <line class="cls-2" x1="389.89" y1="206.84" x2="389.89" y2="91.29"/>
    <line class="cls-2" x1="372.67" y1="206.84" x2="372.67" y2="91.29"/>
    <line class="cls-2" x1="354.88" y1="206.84" x2="354.88" y2="91.29"/>
    <line class="cls-2" x1="338.62" y1="207.27" x2="338.62" y2="91.29"/>
    <polyline class="cls-1" points="447.53 247.9 447.53 221.63 317.96 221.63 317.96 247.9"/>
    <polyline class="cls-2" points="273.57 218.06 242.46 218.06 120.03 148.17 3.2 148.17"/>
    <polyline class="cls-2" points="492.42 218.06 519.46 218.06 638.83 148.17 733.71 148.17"/>
    <line class="cls-2" x1="422.79" y1="247.9" x2="422.79" y2="221.63"/>
    <line class="cls-2" x1="437.84" y1="247.9" x2="437.84" y2="221.63"/>
    <line class="cls-2" x1="412.59" y1="247.9" x2="412.59" y2="221.63"/>
    <line class="cls-2" x1="393.46" y1="247.9" x2="393.46" y2="221.63"/>
    <line class="cls-2" x1="372.67" y1="247.9" x2="372.67" y2="221.63"/>
    <line class="cls-2" x1="353.84" y1="247.9" x2="353.84" y2="221.63"/>
    <line class="cls-2" x1="340.91" y1="247.9" x2="340.91" y2="221.63"/>
    <line class="cls-2" x1="326.63" y1="247.9" x2="326.63" y2="221.63"/>
</svg>