<?xml version="1.0" encoding="UTF-8" standalone="no"?>
<svg
   xmlns:dc="http://purl.org/dc/elements/1.1/"
   xmlns:cc="http://creativecommons.org/ns#"
   xmlns:rdf="http://www.w3.org/1999/02/22-rdf-syntax-ns#"
   xmlns:svg="http://www.w3.org/2000/svg"
   xmlns="http://www.w3.org/2000/svg"
   xmlns:sodipodi="http://sodipodi.sourceforge.net/DTD/sodipodi-0.dtd"
   xmlns:inkscape="http://www.inkscape.org/namespaces/inkscape"
   width="210mm"
   height="297mm"
   viewBox="0 0 210 297"
   version="1.1"
   id="svg8"
   inkscape:version="1.0.2 (e86c870879, 2021-01-15, custom)"
   sodipodi:docname="рисунок-1.svg">
  <defs
     id="defs2">
    <style
       id="style10">.cls-1,.cls-2{fill:none;stroke:#1e1e1c;}.cls-1{stroke-width:2px;}</style>
  </defs>
  <sodipodi:namedview
     id="base"
     pagecolor="#ffffff"
     bordercolor="#666666"
     borderopacity="1.0"
     inkscape:pageopacity="0.0"
     inkscape:pageshadow="2"
     inkscape:zoom="0.35"
     inkscape:cx="400"
     inkscape:cy="560"
     inkscape:document-units="mm"
     inkscape:current-layer="layer1"
     inkscape:document-rotation="0"
     showgrid="false"
     inkscape:window-width="1710"
     inkscape:window-height="1030"
     inkscape:window-x="64"
     inkscape:window-y="0"
     inkscape:window-maximized="0" />
  <metadata
     id="metadata5">
    <rdf:RDF>
      <cc:Work
         rdf:about="">
        <dc:format>image/svg+xml</dc:format>
        <dc:type
           rdf:resource="http://purl.org/dc/dcmitype/StillImage" />
        <dc:title></dc:title>
      </cc:Work>
    </rdf:RDF>
  </metadata>
  <g
     inkscape:label="Слой 1"
     inkscape:groupmode="layer"
     id="layer1">
    <g
       id="g227"
       transform="matrix(0.26458333,0,0,0.26458333,-11.808923,61.883994)">
      <path
         class="cls-1"
         d="m 482.29,221.85 c 11.44,-4.28 324.74,14 324.74,14 v 53.06"
         id="path14" />
      <polyline
         class="cls-1"
         points="76.52 326.63 193.34 326.63 315.77 397.02 346.89 397.02 346.89 435.29 298.93 435.29 177.52 361.83 76.52 361.32"
         id="polyline16" />
      <polyline
         class="cls-1"
         points="346.89 435.29 565.73 435.29 565.73 397.02 592.77 397.02 712.14 326.63 807.02 326.63"
         id="polyline18" />
      <polyline
         class="cls-1"
         points="807.02 360.81 729.49 360.81 611.13 435.29 565.73 435.29"
         id="polyline20" />
      <polyline
         class="cls-1"
         points="611.13 435.29 681.02 435.29 736.12 398.05 807.02 398.05 807.02 288.88 790.19 288.88"
         id="polyline22" />
      <polyline
         class="cls-1"
         points="536.14 435.29 536.14 398.05 375.96 398.05 375.96 435.29"
         id="polyline24" />
      <path
         class="cls-1"
         d="m 712.14,326.63 v -37.75 c 0,0 63.77,-5.61 78.05,0 v 37.75"
         id="path26" />
      <path
         class="cls-1"
         d="m 193.34,326.63 v -37.75 c 0,0 -40.3,-7.15 -78.56,3.06 v 34.69"
         id="path28" />
      <line
         class="cls-1"
         x1="76.519997"
         y1="291.94"
         x2="114.78"
         y2="291.94"
         id="line30" />
      <polyline
         class="cls-1"
         points="193.34 288.88 288.73 291.94 288.73 382.23"
         id="polyline32" />
      <polyline
         class="cls-1"
         points="712.14 288.88 683.06 289.82 617.77 291.94 620.32 382.23"
         id="polyline34" />
      <path
         class="cls-1"
         d="m 288.73,291.94 c 0,0 38.77,-26 109.68,-13.27 l 57.64,-54.58 55.1,54.58 H 398.41"
         id="path36" />
      <path
         class="cls-1"
         d="M 511.15,398.05 V 278.67 c 0,0 33.52,-11.75 91.71,7.77 q 7.2,2.42 14.91,5.5"
         id="path38" />
      <path
         class="cls-1"
         d="m 807,274.59 c 0,0 -254,-13.77 -286.19,-13.77 L 456.05,194.5 430,221.2 391.3,260.82 c 0,0 -297.44,6.12 -314.78,13.77 v 124.48 l 95.39,2 56.62,34.17 h 70.4"
         id="path40" />
      <path
         class="cls-1"
         d="m 427.15,224.09 c 0,0 -266.46,0.51 -350.63,13.77 v 36.73"
         id="path42" />
      <line
         class="cls-2"
         x1="592.77002"
         y1="397.01999"
         x2="592.77002"
         y2="283.54999"
         id="line44" />
      <line
         class="cls-2"
         x1="315.76999"
         y1="397.01999"
         x2="315.76999"
         y2="280.85999"
         id="line46" />
      <line
         class="cls-1"
         x1="398.41"
         y1="278.67001"
         x2="398.41"
         y2="398.04999"
         id="line48" />
      <polygon
         class="cls-2"
         points="420.51,230.89 491.6,230.89 456.05,258.01 "
         id="polygon50" />
      <line
         class="cls-1"
         x1="391.26999"
         y1="260.82001"
         x2="520.84003"
         y2="260.82001"
         id="line52" />
      <line
         class="cls-2"
         x1="696.79999"
         y1="289.37"
         x2="696.79999"
         y2="335.54999"
         id="line54" />
      <line
         class="cls-2"
         x1="684.34003"
         y1="343.01999"
         x2="684.34003"
         y2="289.82001"
         id="line56" />
      <line
         class="cls-2"
         x1="672.64001"
         y1="349.92001"
         x2="672.64001"
         y2="290.16"
         id="line58" />
      <line
         class="cls-2"
         x1="659.38"
         y1="357.73999"
         x2="659.38"
         y2="290.59"
         id="line60" />
      <line
         class="cls-2"
         x1="644.65997"
         y1="366.42001"
         x2="644.65997"
         y2="290.59"
         id="line62" />
      <line
         class="cls-2"
         x1="632.63"
         y1="373.51999"
         x2="632.63"
         y2="291.45999"
         id="line64" />
      <line
         class="cls-2"
         x1="536.14001"
         y1="398.04999"
         x2="536.14001"
         y2="275.20999"
         id="line66" />
      <line
         class="cls-2"
         x1="565.72998"
         y1="397.01999"
         x2="565.72998"
         y2="277.26001"
         id="line68" />
      <line
         class="cls-2"
         x1="607.76001"
         y1="388.17999"
         x2="607.76001"
         y2="288.14001"
         id="line70" />
      <line
         class="cls-2"
         x1="375.95999"
         y1="398.04999"
         x2="375.95999"
         y2="275.78"
         id="line72" />
      <line
         class="cls-2"
         x1="346.89001"
         y1="397.01999"
         x2="346.89001"
         y2="275.64001"
         id="line74" />
      <line
         class="cls-2"
         x1="331.57999"
         y1="397.01999"
         x2="331.57999"
         y2="277.42999"
         id="line76" />
      <line
         class="cls-2"
         x1="300.39001"
         y1="388.17999"
         x2="300.39001"
         y2="286.09"
         id="line78" />
      <line
         class="cls-2"
         x1="361.67999"
         y1="435.28"
         x2="361.67999"
         y2="275.16"
         id="line80" />
      <line
         class="cls-2"
         x1="549.40997"
         y1="435.28"
         x2="549.40997"
         y2="275.64001"
         id="line82" />
      <line
         class="cls-2"
         x1="274.89001"
         y1="373.51999"
         x2="274.89001"
         y2="291.45999"
         id="line84" />
      <line
         class="cls-2"
         x1="262.54999"
         y1="366.42001"
         x2="262.54999"
         y2="291.45999"
         id="line86" />
      <line
         class="cls-2"
         x1="247.44"
         y1="357.73999"
         x2="247.44"
         y2="291.45999"
         id="line88" />
      <line
         class="cls-2"
         x1="233.85001"
         y1="349.92001"
         x2="233.85001"
         y2="290.59"
         id="line90" />
      <line
         class="cls-2"
         x1="221.85001"
         y1="343.01999"
         x2="221.85001"
         y2="289.82001"
         id="line92" />
      <line
         class="cls-2"
         x1="208.86"
         y1="335.54999"
         x2="208.86"
         y2="289.37"
         id="line94" />
      <path
         class="cls-2"
         d="M 712.14,316.42 H 617.77 C 551.2,294 511.15,304.18 511.15,304.18 H 398.41"
         id="path96" />
      <path
         class="cls-2"
         d="m 677.33,347.16 h -58 l -1.56,-0.77 C 551.2,323.94 511.15,334.15 511.15,334.15 H 398.41"
         id="path98" />
      <path
         class="cls-2"
         d="m 626.05,377.4 h -5.87 l -2.41,-1 C 551.2,353.96 511.15,364.16 511.15,364.16 H 398.41"
         id="path100" />
      <path
         class="cls-2"
         d="m 398.41,394.22 h 112.74 c 0,0 48.14,-4 68.87,2.8 V 280"
         id="path102" />
      <path
         class="cls-2"
         d="m 398.41,304 c 0,0 -46.55,-9.12 -106.62,12.24"
         id="path104" />
      <polyline
         class="cls-2"
         points="292.72 315.9 288.73 317.32 193.34 317.32"
         id="polyline106" />
      <path
         class="cls-2"
         d="m 398.41,334 c 0,0 -46.55,-9.12 -106.62,12.24"
         id="path108" />
      <polyline
         class="cls-2"
         points="292.72 345.88 288.73 347.29 230.39 347.29"
         id="polyline110" />
      <path
         class="cls-2"
         d="m 398.41,363.93 c 0,0 -46.55,-9.12 -106.62,12.24"
         id="path112" />
      <polyline
         class="cls-2"
         points="292.72 375.85 288.73 377.26 281.39 377.26"
         id="polyline114" />
      <path
         class="cls-2"
         d="m 397.13,394.22 c 0,0 -46.61,-3.4 -65.8,1.93"
         id="path116" />
      <line
         class="cls-2"
         x1="499.92999"
         y1="394.22"
         x2="499.92999"
         y2="278.67001"
         id="line118" />
      <line
         class="cls-2"
         x1="482.29001"
         y1="394.22"
         x2="482.29001"
         y2="278.67001"
         id="line120" />
      <line
         class="cls-2"
         x1="463.20001"
         y1="394.22"
         x2="463.20001"
         y2="278.67001"
         id="line122" />
      <line
         class="cls-2"
         x1="445.98001"
         y1="394.22"
         x2="445.98001"
         y2="278.67001"
         id="line124" />
      <line
         class="cls-2"
         x1="428.19"
         y1="394.22"
         x2="428.19"
         y2="278.67001"
         id="line126" />
      <line
         class="cls-2"
         x1="411.92999"
         y1="394.64999"
         x2="411.92999"
         y2="278.67001"
         id="line128" />
      <polyline
         class="cls-1"
         points="520.84 435.29 520.84 409.01 391.27 409.01 391.27 435.29"
         id="polyline130" />
      <polyline
         class="cls-2"
         points="346.89 405.44 315.77 405.44 193.34 335.55 76.52 335.55"
         id="polyline132" />
      <polyline
         class="cls-2"
         points="565.73 405.44 592.77 405.44 712.14 335.55 807.02 335.55"
         id="polyline134" />
      <line
         class="cls-2"
         x1="496.10001"
         y1="435.28"
         x2="496.10001"
         y2="409.01001"
         id="line136" />
      <line
         class="cls-2"
         x1="511.14999"
         y1="435.28"
         x2="511.14999"
         y2="409.01001"
         id="line138" />
      <line
         class="cls-2"
         x1="485.89999"
         y1="435.28"
         x2="485.89999"
         y2="409.01001"
         id="line140" />
      <line
         class="cls-2"
         x1="466.76999"
         y1="435.28"
         x2="466.76999"
         y2="409.01001"
         id="line142" />
      <line
         class="cls-2"
         x1="445.98001"
         y1="435.28"
         x2="445.98001"
         y2="409.01001"
         id="line144" />
      <line
         class="cls-2"
         x1="427.14999"
         y1="435.28"
         x2="427.14999"
         y2="409.01001"
         id="line146" />
      <line
         class="cls-2"
         x1="414.22"
         y1="435.28"
         x2="414.22"
         y2="409.01001"
         id="line148" />
      <line
         class="cls-2"
         x1="399.94"
         y1="435.28"
         x2="399.94"
         y2="409.01001"
         id="line150" />
    </g>
  </g>
</svg>
