<svg width="281" height="119" viewBox="0 0 281 119" fill="none" xmlns="http://www.w3.org/2000/svg">
<path d="M150.582 10.6607C154.153 9.43249 251.973 14.678 251.973 14.678V29.9038" stroke="#1E1E1C" stroke-width="2"/>
<path d="M23.8912 40.7277H60.365L98.5904 60.9263H108.307V71.908H93.3326L55.4257 50.8284L23.8912 50.6821" stroke="#1E1E1C" stroke-width="2"/>
<path d="M108.307 71.908H176.633V60.9263H185.076L222.346 40.7277H251.97" stroke="#1E1E1C" stroke-width="2"/>
<path d="M251.97 50.5357H227.763L190.808 71.908H176.633" stroke="#1E1E1C" stroke-width="2"/>
<path d="M190.808 71.908H212.63L229.833 61.2219H251.97V29.8951H246.715" stroke="#1E1E1C" stroke-width="2"/>
<path d="M167.395 71.9081V61.2219H117.383V71.9081" stroke="#1E1E1C" stroke-width="2"/>
<path d="M222.346 40.7277V29.8952C222.346 29.8952 242.256 28.2853 246.715 29.8952V40.7277" stroke="#1E1E1C" stroke-width="2"/>
<path d="M60.365 40.7277V29.8952C60.365 29.8952 47.7825 27.8435 35.8369 30.7733V40.7277" stroke="#1E1E1C" stroke-width="2"/>
<path d="M23.8912 30.7733H35.8369" stroke="#1E1E1C" stroke-width="2"/>
<path d="M60.3651 29.8951L90.1479 30.7732V56.6823" stroke="#1E1E1C" stroke-width="2"/>
<path d="M222.346 29.8951L213.267 30.1649L192.882 30.7732L193.678 56.6823" stroke="#1E1E1C" stroke-width="2"/>
<path d="M90.1479 30.7732C90.1479 30.7732 102.253 23.3124 124.392 26.9654M124.392 26.9654L142.389 11.3034L159.592 26.9654H124.392Z" stroke="#1E1E1C" stroke-width="2"/>
<path d="M159.592 61.2219V26.9654C159.592 26.9654 170.058 23.5937 188.226 29.195C189.725 29.6579 191.277 30.184 192.882 30.7732" stroke="#1E1E1C" stroke-width="2"/>
<path d="M251.963 25.7946C251.963 25.7946 172.659 21.8432 162.608 21.8432L142.389 2.81247L134.256 10.4741L122.173 21.8432C122.173 21.8432 29.3052 23.5994 23.8912 25.7946V61.5146L53.6741 62.0885L71.3521 71.8937H93.3326" stroke="#1E1E1C" stroke-width="2"/>
<path d="M133.366 11.3034C133.366 11.3034 50.171 11.4498 23.8912 15.2548V25.7946" stroke="#1E1E1C" stroke-width="2"/>
<path d="M185.076 60.9263V28.3657" stroke="#1E1E1C"/>
<path d="M98.5904 60.9263V27.5938" stroke="#1E1E1C"/>
<path d="M124.392 26.9654V61.2219" stroke="#1E1E1C" stroke-width="2"/>
<path d="M131.293 13.2547H153.488L142.389 21.0369L131.293 13.2547Z" stroke="#1E1E1C"/>
<path d="M122.163 21.8432H162.618" stroke="#1E1E1C" stroke-width="2"/>
<path d="M217.556 30.0358V43.2873" stroke="#1E1E1C"/>
<path d="M213.666 45.4308V30.1649" stroke="#1E1E1C"/>
<path d="M210.013 47.4108V30.2625" stroke="#1E1E1C"/>
<path d="M205.873 49.6548V30.3858" stroke="#1E1E1C"/>
<path d="M201.277 52.1455V30.3858" stroke="#1E1E1C"/>
<path d="M197.521 54.1829V30.6355" stroke="#1E1E1C"/>
<path d="M167.395 61.2219V25.9725" stroke="#1E1E1C"/>
<path d="M176.633 60.9263V26.5608" stroke="#1E1E1C"/>
<path d="M189.756 58.3897V29.6828" stroke="#1E1E1C"/>
<path d="M117.383 61.2219V26.136" stroke="#1E1E1C"/>
<path d="M108.307 60.9263V26.0959" stroke="#1E1E1C"/>
<path d="M103.527 60.9263V26.6096" stroke="#1E1E1C"/>
<path d="M93.7885 58.3897V29.0946" stroke="#1E1E1C"/>
<path d="M112.925 71.9052V25.9582" stroke="#1E1E1C"/>
<path d="M171.538 71.9052V26.0959" stroke="#1E1E1C"/>
<path d="M85.8268 54.1829V30.6355" stroke="#1E1E1C"/>
<path d="M81.9739 52.1455V30.6355" stroke="#1E1E1C"/>
<path d="M77.2563 49.6548V30.6355" stroke="#1E1E1C"/>
<path d="M73.0132 47.4108V30.3858" stroke="#1E1E1C"/>
<path d="M69.2665 45.4308V30.1649" stroke="#1E1E1C"/>
<path d="M65.2108 43.2873V30.0358" stroke="#1E1E1C"/>
<path d="M222.346 37.7979H192.882C172.097 31.3644 159.592 34.2856 159.592 34.2856H124.392" stroke="#1E1E1C"/>
<path d="M211.477 46.6188H193.369L192.882 46.3979C172.097 39.9558 159.592 42.8855 159.592 42.8855H124.392" stroke="#1E1E1C"/>
<path d="M195.467 55.2963H193.634L192.882 55.0093C172.097 48.5701 159.592 51.497 159.592 51.497H124.392" stroke="#1E1E1C"/>
<path d="M124.392 60.1229H159.592C159.592 60.1229 174.623 58.975 181.095 60.9263V27.347" stroke="#1E1E1C"/>
<path d="M124.392 34.2339C124.392 34.2339 109.859 31.6169 91.1033 37.7462" stroke="#1E1E1C"/>
<path d="M91.3937 37.6487L90.1479 38.0561H60.3651" stroke="#1E1E1C"/>
<path d="M124.392 42.8425C124.392 42.8425 109.859 40.2255 91.1033 46.3548" stroke="#1E1E1C"/>
<path d="M91.3937 46.2515L90.1479 46.6561H71.9329" stroke="#1E1E1C"/>
<path d="M124.392 51.431C124.392 51.431 109.859 48.814 91.1033 54.9433" stroke="#1E1E1C"/>
<path d="M91.3937 54.8515L90.1479 55.2561H87.8562" stroke="#1E1E1C"/>
<path d="M123.993 60.1228C123.993 60.1228 109.44 59.1472 103.449 60.6767" stroke="#1E1E1C"/>
<path d="M156.089 60.1228V26.9654" stroke="#1E1E1C"/>
<path d="M150.582 60.1228V26.9654" stroke="#1E1E1C"/>
<path d="M144.621 60.1228V26.9654" stroke="#1E1E1C"/>
<path d="M139.245 60.1228V26.9654" stroke="#1E1E1C"/>
<path d="M133.69 60.1228V26.9654" stroke="#1E1E1C"/>
<path d="M128.614 60.2462V26.9654" stroke="#1E1E1C"/>
<path d="M162.618 71.9081V64.3669H122.163V71.9081" stroke="#1E1E1C" stroke-width="2"/>
<path d="M108.307 63.3425H98.5904L60.365 43.2873H23.8912" stroke="#1E1E1C"/>
<path d="M176.633 63.3425H185.076L222.346 43.2873H251.97" stroke="#1E1E1C"/>
<path d="M154.893 71.9052V64.3669" stroke="#1E1E1C"/>
<path d="M159.592 71.9052V64.3669" stroke="#1E1E1C"/>
<path d="M151.709 71.9052V64.3669" stroke="#1E1E1C"/>
<path d="M145.736 71.9052V64.3669" stroke="#1E1E1C"/>
<path d="M139.245 71.9052V64.3669" stroke="#1E1E1C"/>
<path d="M133.366 71.9052V64.3669" stroke="#1E1E1C"/>
<path d="M129.329 71.9052V64.3669" stroke="#1E1E1C"/>
<path d="M124.87 71.9052V64.3669" stroke="#1E1E1C"/>
</svg>
