<svg id="Слой_1" data-name="Слой 1" xmlns="http://www.w3.org/2000/svg" viewBox="0 0 900 599.4"><defs><style>.cls-1,.cls-2{fill:none;stroke:#1e1e1c;}.cls-1{stroke-width:2px;}</style></defs><path class="cls-1" d="M482.29,221.85c11.44-4.28,324.74,14,324.74,14v53.06"/><polyline class="cls-1" points="76.52 326.63 193.34 326.63 315.77 397.02 346.89 397.02 346.89 435.29 298.93 435.29 177.52 361.83 76.52 361.32"/><polyline class="cls-1" points="346.89 435.29 565.73 435.29 565.73 397.02 592.77 397.02 712.14 326.63 807.02 326.63"/><polyline class="cls-1" points="807.02 360.81 729.49 360.81 611.13 435.29 565.73 435.29"/><polyline class="cls-1" points="611.13 435.29 681.02 435.29 736.12 398.05 807.02 398.05 807.02 288.88 790.19 288.88"/><polyline class="cls-1" points="536.14 435.29 536.14 398.05 375.96 398.05 375.96 435.29"/><path class="cls-1" d="M712.14,326.63V288.88s63.77-5.61,78.05,0v37.75"/><path class="cls-1" d="M193.34,326.63V288.88s-40.3-7.15-78.56,3.06v34.69"/><line class="cls-1" x1="76.52" y1="291.94" x2="114.78" y2="291.94"/><polyline class="cls-1" points="193.34 288.88 288.73 291.94 288.73 382.23"/><polyline class="cls-1" points="712.14 288.88 683.06 289.82 617.77 291.94 620.32 382.23"/><path class="cls-1" d="M288.73,291.94s38.77-26,109.68-13.27l57.64-54.58,55.1,54.58H398.41"/><path class="cls-1" d="M511.15,398.05V278.67s33.52-11.75,91.71,7.77q7.2,2.42,14.91,5.5"/><path class="cls-1" d="M807,274.59s-254-13.77-286.19-13.77L456.05,194.5,430,221.2l-38.7,39.62S93.86,266.94,76.52,274.59V399.07l95.39,2,56.62,34.17h70.4"/><path class="cls-1" d="M427.15,224.09s-266.46.51-350.63,13.77v36.73"/><line class="cls-2" x1="592.77" y1="397.02" x2="592.77" y2="283.55"/><line class="cls-2" x1="315.77" y1="397.02" x2="315.77" y2="280.86"/><line class="cls-1" x1="398.41" y1="278.67" x2="398.41" y2="398.05"/><polygon class="cls-2" points="420.51 230.89 491.6 230.89 456.05 258.01 420.51 230.89"/><line class="cls-1" x1="391.27" y1="260.82" x2="520.84" y2="260.82"/><line class="cls-2" x1="696.8" y1="289.37" x2="696.8" y2="335.55"/><line class="cls-2" x1="684.34" y1="343.02" x2="684.34" y2="289.82"/><line class="cls-2" x1="672.64" y1="349.92" x2="672.64" y2="290.16"/><line class="cls-2" x1="659.38" y1="357.74" x2="659.38" y2="290.59"/><line class="cls-2" x1="644.66" y1="366.42" x2="644.66" y2="290.59"/><line class="cls-2" x1="632.63" y1="373.52" x2="632.63" y2="291.46"/><line class="cls-2" x1="536.14" y1="398.05" x2="536.14" y2="275.21"/><line class="cls-2" x1="565.73" y1="397.02" x2="565.73" y2="277.26"/><line class="cls-2" x1="607.76" y1="388.18" x2="607.76" y2="288.14"/><line class="cls-2" x1="375.96" y1="398.05" x2="375.96" y2="275.78"/><line class="cls-2" x1="346.89" y1="397.02" x2="346.89" y2="275.64"/><line class="cls-2" x1="331.58" y1="397.02" x2="331.58" y2="277.43"/><line class="cls-2" x1="300.39" y1="388.18" x2="300.39" y2="286.09"/><line class="cls-2" x1="361.68" y1="435.28" x2="361.68" y2="275.16"/><line class="cls-2" x1="549.41" y1="435.28" x2="549.41" y2="275.64"/><line class="cls-2" x1="274.89" y1="373.52" x2="274.89" y2="291.46"/><line class="cls-2" x1="262.55" y1="366.42" x2="262.55" y2="291.46"/><line class="cls-2" x1="247.44" y1="357.74" x2="247.44" y2="291.46"/><line class="cls-2" x1="233.85" y1="349.92" x2="233.85" y2="290.59"/><line class="cls-2" x1="221.85" y1="343.02" x2="221.85" y2="289.82"/><line class="cls-2" x1="208.86" y1="335.55" x2="208.86" y2="289.37"/><path class="cls-2" d="M712.14,316.42H617.77C551.2,294,511.15,304.18,511.15,304.18H398.41"/><path class="cls-2" d="M677.33,347.16h-58l-1.56-.77c-66.57-22.45-106.62-12.24-106.62-12.24H398.41"/><path class="cls-2" d="M626.05,377.4h-5.87l-2.41-1c-66.57-22.44-106.62-12.24-106.62-12.24H398.41"/><path class="cls-2" d="M398.41,394.22H511.15s48.14-4,68.87,2.8V280"/><path class="cls-2" d="M398.41,304s-46.55-9.12-106.62,12.24"/><polyline class="cls-2" points="292.72 315.9 288.73 317.32 193.34 317.32"/><path class="cls-2" d="M398.41,334s-46.55-9.12-106.62,12.24"/><polyline class="cls-2" points="292.72 345.88 288.73 347.29 230.39 347.29"/><path class="cls-2" d="M398.41,363.93s-46.55-9.12-106.62,12.24"/><polyline class="cls-2" points="292.72 375.85 288.73 377.26 281.39 377.26"/><path class="cls-2" d="M397.13,394.22s-46.61-3.4-65.8,1.93"/><line class="cls-2" x1="499.93" y1="394.22" x2="499.93" y2="278.67"/><line class="cls-2" x1="482.29" y1="394.22" x2="482.29" y2="278.67"/><line class="cls-2" x1="463.2" y1="394.22" x2="463.2" y2="278.67"/><line class="cls-2" x1="445.98" y1="394.22" x2="445.98" y2="278.67"/><line class="cls-2" x1="428.19" y1="394.22" x2="428.19" y2="278.67"/><line class="cls-2" x1="411.93" y1="394.65" x2="411.93" y2="278.67"/><polyline class="cls-1" points="520.84 435.29 520.84 409.01 391.27 409.01 391.27 435.29"/><polyline class="cls-2" points="346.89 405.44 315.77 405.44 193.34 335.55 76.52 335.55"/><polyline class="cls-2" points="565.73 405.44 592.77 405.44 712.14 335.55 807.02 335.55"/><line class="cls-2" x1="496.1" y1="435.28" x2="496.1" y2="409.01"/><line class="cls-2" x1="511.15" y1="435.28" x2="511.15" y2="409.01"/><line class="cls-2" x1="485.9" y1="435.28" x2="485.9" y2="409.01"/><line class="cls-2" x1="466.77" y1="435.28" x2="466.77" y2="409.01"/><line class="cls-2" x1="445.98" y1="435.28" x2="445.98" y2="409.01"/><line class="cls-2" x1="427.15" y1="435.28" x2="427.15" y2="409.01"/><line class="cls-2" x1="414.22" y1="435.28" x2="414.22" y2="409.01"/><line class="cls-2" x1="399.94" y1="435.28" x2="399.94" y2="409.01"/></svg>