<?xml version="1.0" encoding="UTF-8"?>
<!DOCTYPE svg PUBLIC "-//W3C//DTD SVG 1.1//EN" "http://www.w3.org/Graphics/SVG/1.1/DTD/svg11.dtd">
<svg xmlns="http://www.w3.org/2000/svg" version="1.1" width="512px" height="512px" style="shape-rendering:geometricPrecision; text-rendering:geometricPrecision; image-rendering:optimizeQuality; fill-rule:evenodd; clip-rule:evenodd" xmlns:xlink="http://www.w3.org/1999/xlink">
<g><path style="opacity:0.982" fill="#000000" d="M -0.5,115.5 C 71.8341,115.333 144.167,115.5 216.5,116C 303.158,121.87 379.825,152.203 446.5,207C 463.934,221.764 480.767,237.264 497,253.5C 502.471,259.789 507.304,266.456 511.5,273.5C 511.5,277.167 511.5,280.833 511.5,284.5C 507.569,292.943 501.902,300.11 494.5,306C 472.856,320.22 449.19,329.553 423.5,334C 403.847,335.04 384.18,335.707 364.5,336C 349.918,355.357 332.252,358.691 311.5,346C 308.112,343.214 305.446,339.881 303.5,336C 277.167,335.333 250.833,335.333 224.5,336C 211.371,354.115 194.704,358.115 174.5,348C 169.784,344.951 166.118,340.951 163.5,336C 137.16,335.167 110.827,335.333 84.5,336.5C 71.9845,353.641 55.9845,357.808 36.5,349C 31.5,345.333 27.1667,341 23.5,336C 15.5069,335.5 7.50694,335.334 -0.5,335.5C -0.5,262.167 -0.5,188.833 -0.5,115.5 Z M 34.5,150.5 C 94.1676,150.333 153.834,150.5 213.5,151C 232.354,152.36 251.021,155.027 269.5,159C 271.309,173.26 272.142,187.76 272,202.5C 274.095,214.863 281.261,222.363 293.5,225C 333.167,225.333 372.833,225.667 412.5,226C 425.753,235.915 438.419,246.582 450.5,258C 311.834,258.5 173.167,258.667 34.5,258.5C 34.5,222.5 34.5,186.5 34.5,150.5 Z"/></g>
<g><path style="opacity:0.943" fill="#000000" d="M 62.5,182.5 C 75.5043,182.333 88.5043,182.5 101.5,183C 102.416,183.374 103.25,183.874 104,184.5C 104.667,198.167 104.667,211.833 104,225.5C 103.5,226 103,226.5 102.5,227C 88.8333,227.667 75.1667,227.667 61.5,227C 61,226.5 60.5,226 60,225.5C 59.3333,211.833 59.3333,198.167 60,184.5C 60.9947,183.934 61.828,183.267 62.5,182.5 Z"/></g>
<g><path style="opacity:0.943" fill="#000000" d="M 130.5,182.5 C 143.504,182.333 156.504,182.5 169.5,183C 170.416,183.374 171.25,183.874 172,184.5C 172.667,198.167 172.667,211.833 172,225.5C 171.5,226 171,226.5 170.5,227C 156.592,227.823 142.758,227.656 129,226.5C 127.37,212.928 127.037,199.261 128,185.5C 128.698,184.309 129.531,183.309 130.5,182.5 Z"/></g>
<g><path style="opacity:0.944" fill="#000000" d="M 198.5,182.5 C 211.837,182.333 225.171,182.5 238.5,183C 239,183.5 239.5,184 240,184.5C 240.667,198.167 240.667,211.833 240,225.5C 239.5,226 239,226.5 238.5,227C 224.592,227.823 210.758,227.656 197,226.5C 195.371,213.261 195.038,199.928 196,186.5C 196.48,184.867 197.313,183.534 198.5,182.5 Z"/></g>
<g><path style="opacity:0.972" fill="#000000" d="M -0.5,360.5 C 153.5,360.333 307.5,360.5 461.5,361C 473.73,364.958 477.896,373.125 474,385.5C 472.098,390.4 468.598,393.567 463.5,395C 308.834,395.5 154.167,395.667 -0.5,395.5C -0.5,383.833 -0.5,372.167 -0.5,360.5 Z"/></g>
</svg>
